<svg xmlns="http://www.w3.org/2000/svg" width="18" height="18"><path fill="#f7f8fa" d="M0 0h18v18H0z"/><path fill="#ed5565" d="M0 14h18v4H0zm9-7h9v4H9zm0-7h9v4H9z"/><path fill="#4a89dc" d="M0 0v11h11V0z"/><path fill="#fff" d="M8.1 3.3L8 3.2l.1-.5a.4.4 0 00-.1-.4L7.6 2v-.2h.6a.4.4 0 00.3-.2l.2-.6h.1l.2.6.3.2h.5c.2 0 .2 0 .1.2l-.4.3a.4.4 0 00-.1.4l.1.4c0 .2 0 .2-.1.1L9 3a.4.4 0 00-.4 0l-.5.3zm0 3.3c0 .1-.1 0-.1 0V6a.4.4 0 00-.1-.4l-.4-.3v-.1h.6a.4.4 0 00.3-.3l.2-.5c0-.2 0-.2.1 0l.2.5.3.2h.5c.2 0 .2.1.1.2l-.4.3a.4.4 0 00-.1.4l.1.5s0 .1-.1 0L9 6.4a.4.4 0 00-.4 0l-.5.3zm0 3.4L8 9.9l.1-.5A.4.4 0 008 9l-.4-.3v-.2h.6a.4.4 0 00.3-.3l.2-.5c0-.1 0-.1.1 0l.2.5c0 .2.2.3.3.3h.5c.2 0 .2 0 .1.1l-.4.4a.4.4 0 00-.1.4l.1.4c0 .1 0 .2-.1.1L9 9.7a.4.4 0 00-.4 0L8 10zM4.8 3.3c-.1 0-.2 0-.1-.1v-.5a.4.4 0 000-.4L4.3 2c-.1-.1 0-.2 0-.2h.5a.4.4 0 00.3-.2l.2-.6c0-.1.1-.1.2 0l.2.5c0 .2.1.3.3.3h.5c.1 0 .2 0 0 .1l-.3.4a.4.4 0 00-.1.4V3c.1.1 0 .2 0 .1L5.5 3a.4.4 0 00-.4 0l-.4.3zm-3.4 0l-.1-.1.1-.5a.4.4 0 00-.1-.4L.9 2v-.2h.6a.4.4 0 00.3-.2l.1-.6h.2l.2.6.3.2h.5c.2 0 .2 0 .1.2l-.4.3a.4.4 0 00-.1.4l.1.4c0 .2 0 .2-.1.1L2.3 3a.4.4 0 00-.5 0l-.4.3zm3.4 3.3c-.1.1-.2 0-.1 0V6a.4.4 0 000-.4l-.4-.3c-.1 0 0-.1 0-.1h.5a.4.4 0 00.3-.3l.2-.5c0-.2.1-.2.2 0l.2.5c0 .1.1.2.3.2h.5c.1 0 .2.1 0 .2l-.3.3A.4.4 0 006 6v.5c.1 0 0 .1 0 0l-.5-.2a.4.4 0 00-.4 0l-.4.3zm0 3.4c-.1 0-.2 0-.1-.1v-.5a.4.4 0 000-.4l-.4-.3c-.1-.1 0-.2 0-.2h.5a.4.4 0 00.3-.3l.2-.5c0-.1.1-.1.2 0l.2.5c0 .2.1.3.3.3h.5c.1 0 .2 0 0 .1l-.3.4a.4.4 0 00-.1.4v.4c.1.1 0 .2 0 .1l-.5-.2a.4.4 0 00-.4 0l-.4.3zM1.4 6.6c0 .1-.1 0-.1 0l.1-.6a.4.4 0 00-.1-.4l-.4-.3v-.1h.6a.4.4 0 00.3-.3l.2-.5c0-.2 0-.2.1 0l.2.5.3.2h.5c.2 0 .2.1.1.2l-.4.3a.4.4 0 00-.1.4l.1.5s0 .1-.1 0l-.4-.2a.4.4 0 00-.4 0l-.5.3zm0 3.4l-.1-.1.1-.5a.4.4 0 00-.1-.4l-.4-.3v-.2h.6a.4.4 0 00.3-.2l.2-.6c0-.1 0-.1.1 0l.2.5c0 .2.2.3.3.3h.5c.2 0 .2 0 .1.1l-.4.4a.4.4 0 00-.1.4l.1.4c0 .1 0 .2-.1.1l-.4-.3a.4.4 0 00-.4 0l-.5.4z"/></svg>