<svg xmlns="http://www.w3.org/2000/svg" width="18" height="18"><path fill="#4758a9" d="M0 0h18v18H0z"/><path fill="#fff" d="M9 4.5V0H0v9h4.5V6l3 3H9V7L6.5 4.5H9zM7 13l-1 .5v.5h-.5L5 15l-.5-1H4v-.6L3 13l1-.4V12h.5l.5-1 .5 1H6v.6zm6-.4l.3.5h.6l-.3.4.5.4-.6.1v.6l-.4-.4-.5.4V14l-.5-.1.4-.4-.2-.5.5.1zm-2.2-5.5l.2.6.6-.2-.3.5.5.4-.6.1v.6l-.4-.4-.5.4v-.6l-.5-.1.4-.4-.2-.5.5.2zm2.3-3l.2.4.6-.1-.3.5.5.4h-.6V6l-.4-.4-.5.4v-.6l-.5-.1.4-.4-.2-.5.5.1zm2 2.3l.2.5.6-.1-.3.5.5.3-.6.1v.6l-.4-.3-.5.3v-.6h-.5l.4-.4-.2-.6.5.2zM13.6 9l.2.6h.7l-.5.4.1.6-.5-.4-.5.4.2-.6-.5-.4h.6z"/><path fill="#ed5565" d="M3 1V0H1v1H0v2h1v6h2V3h6V1H3zm6 7L5 4H4l5 5V8z"/></svg>