<svg xmlns="http://www.w3.org/2000/svg" width="18" height="18"><path fill="#f7f8fa" d="M0 0h18v18H0z"/><path fill="#ed5565" d="M12.5 8.3c0 .3-.3-.8-1.4-1A2 2 0 009 8.8a1.7 1.7 0 01-2 1.3A1.6 1.6 0 015.5 8a3.5 3.5 0 014.2-2.5 3.4 3.4 0 012.8 2.7z"/><path fill="#4758a9" d="M8.3 12.4a3.4 3.4 0 01-2.8-2.7c0-.3.3.8 1.3 1a2 2 0 002.3-1.5 1.7 1.7 0 012-1.2 1.6 1.6 0 011.4 1.8 3.5 3.5 0 01-4.2 2.6z"/><path fill="#3f4a56" d="M4 14.5l-2-3.3.6-.3 2 3.3-.7.3zm1.1-.6l-2-3.3.7-.3 1.9 3.3-.6.3zm9 .5L16 11l-.6-.3-2 3.4.7.3zm-1.2-.6l2-3.4-.7-.3-1.9 3.4.6.3zm-9-10.3L2 6.7l.6.3 1.9-3.2-.6-.3zm1.2.6L3 7.3l.7.3 1.9-3.2L5 4zm8.8-.5l2 3.3-.7.3L13.4 4l.5-.3zm-1.1.6l1.9 3.3-.6.3-2-3.3.7-.3z"/></svg>