<svg xmlns="http://www.w3.org/2000/svg" width="18" height="18"><path fill="#4758a9" d="M0 18h18V0H0z"/><path fill="#fff" d="M9 4.5V0H0v9h4.5V6l3 3H9V7L6.5 4.5H9z"/><path fill="#ed5565" d="M11 8.1l.3.6.5-.2-.2.5.4.4-.6.1v.6l-.4-.4-.4.4v-.6l-.6-.1.5-.4-.3-.5.6.2zm2 4l.3.6.5-.2-.2.5.4.4-.6.1v.6l-.4-.4-.4.4v-.6l-.6-.1.5-.4-.3-.5.6.2zm.3-7.1l.3.5.5-.1-.2.5.4.4h-.6V7l-.4-.4-.5.4v-.6l-.5-.1.5-.4-.3-.5.6.1zm2 3.4l.3.5.5-.2-.2.6.4.3-.6.1v.6l-.4-.4-.4.4v-.6h-.6l.4-.4-.2-.6.6.2zM3 1V0H1v1H0v2h1v6h2V3h6V1H3zm6 6.9L5 4H4l5 5V7.9z"/></svg>