<svg xmlns="http://www.w3.org/2000/svg" width="18" height="18"><path fill="#f5f7fa" d="M18 0v18H0V0h18z"/><path fill="#ed5565" d="M0 0h18v9H0V0"/><path fill="#fff" d="M4.6 5.3C5 6.5 6 7.3 7 7.5c-1.6.6-3.4-.1-4-1.8a3.3 3.3 0 012-4.1 2.8 2.8 0 01.2 0 3.1 3.1 0 011.8 0 3.2 3.2 0 00-2.4 3.7zm3-2.5L7 2.5h.6l.1-.6.2.6h.6l-.5.3.2.6-.5-.3-.4.3.1-.6zm1.6 1.3l-.5-.3h.5l.2-.6.2.6h.6l-.5.3.2.6-.4-.3-.5.3.2-.6zm-.6 2L8 5.7h.6l.1-.6.2.6h.6l-.5.4.2.5-.5-.3-.4.3.2-.5zm-2.1 0L6 5.7h.6l.2-.5.2.5h.5l-.4.4.1.5-.4-.3-.5.3.2-.5zm-.6-2l-.5-.3H6l.1-.6.2.6H7l-.5.3.2.6-.5-.4-.4.4.2-.6z"/></svg>